# xmcd
#
# Track frame offsets:
#	150
#	21465
#	42402
#	64342
#	88485
#	106100
#	131332
#	146962
#	172492
#	190707
#	206655
#
# Disc length: 3090 seconds
#
# Revision: 0
# Processed by: cddbd v1.5.2PL0 Copyright (c) Steve Scherf et al.
# Submitted via: audiograbber 1.83.01
#
DISCID=ae0c100b
DTITLE=B.B. King - King Of The Blues: 1989
DYEAR=1988
DGENRE=Blues
TTITLE0=(you've become a) Habit to me
TTITLE1=Drowning in the sea of love
TTITLE2=Can't get enough
TTITLE3=Standing on the edge
TTITLE4=Go on
TTITLE5=Let's straighten it out
TTITLE6=Change in your lovin'
TTITLE7=Undercover man
TTITLE8=Lay another log on the fire
TTITLE9=Business with my baby tonight
TTITLE10=Take off your shoes
EXTD=
EXTT0=
EXTT1=
EXTT2=
EXTT3=
EXTT4=
EXTT5=
EXTT6=
EXTT7=
EXTT8=
EXTT9=
EXTT10=
PLAYORDER=
